<?xml version="1.0" standalone="no"?>
<!DOCTYPE svg PUBLIC "-//W3C//DTD SVG 20010904//EN"
 "http://www.w3.org/TR/2001/REC-SVG-20010904/DTD/svg10.dtd">
<svg version="1.0" xmlns="http://www.w3.org/2000/svg"
 width="91.000000pt" height="100.000000pt" viewBox="0 0 91.000000 100.000000"
 preserveAspectRatio="xMidYMid meet">

<g transform="translate(0.000000,100.000000) scale(0.100000,-0.100000)"
fill="#000000" stroke="none">
<path d="M54 465 c-18 -74 48 -189 131 -226 75 -34 187 -19 242 33 21 19 21
23 7 50 l-15 28 -38 -30 c-104 -84 -251 -19 -268 118 -5 46 -8 52 -29 52 -17
0 -25 -7 -30 -25z"/>
<path d="M370 485 c0 -15 87 -162 114 -193 61 -69 175 -92 262 -53 55 25 110
92 124 152 16 65 7 99 -25 99 -21 0 -25 -5 -25 -32 -1 -76 -67 -161 -135 -174
-86 -16 -140 18 -209 131 -37 60 -47 70 -74 73 -18 2 -32 1 -32 -3z"/>
<path d="M491 473 c-6 -12 -5 -26 5 -45 8 -15 17 -28 19 -28 5 0 45 75 45 85
0 14 -60 3 -69 -12z"/>
<path d="M17 149 c-13 -8 -17 -23 -17 -69 0 -33 4 -60 9 -60 9 0 21 48 21 86
0 20 5 24 30 24 20 0 30 5 30 15 0 17 -45 20 -73 4z"/>
<path d="M122 93 c3 -59 6 -68 23 -70 11 -2 14 0 8 3 -9 4 -13 28 -13 70 0 38
-4 64 -10 64 -7 0 -10 -25 -8 -67z"/>
<path d="M40 100 c0 -5 11 -10 25 -10 14 0 25 5 25 10 0 6 -11 10 -25 10 -14
0 -25 -4 -25 -10z"/>
<path d="M197 104 c-4 -4 -7 -25 -7 -46 l0 -38 56 0 55 0 -3 43 -3 42 -45 3
c-25 2 -49 0 -53 -4z m83 -44 c0 -28 -3 -30 -35 -30 -30 0 -35 3 -35 23 0 31
7 37 42 37 24 0 28 -4 28 -30z"/>
<path d="M330 71 c0 -49 15 -60 44 -32 28 26 36 26 36 0 0 -32 40 -20 67 20
25 36 29 51 14 51 -5 0 -20 -17 -33 -37 l-23 -38 -3 38 c-2 20 -6 37 -10 37
-3 0 -19 -12 -34 -27 l-28 -27 0 27 c0 17 -5 27 -15 27 -11 0 -15 -11 -15 -39z"/>
<path d="M531 96 c-7 -8 -11 -27 -9 -43 3 -27 5 -28 58 -28 53 0 55 1 58 28 2
16 -2 35 -9 43 -15 18 -83 18 -98 0z m81 -31 c3 -13 3 -27 0 -30 -12 -11 -63
-4 -68 10 -10 26 4 45 35 45 23 0 30 -5 33 -25z"/>
<path d="M677 103 c-11 -10 -8 -83 3 -83 6 0 10 16 10 35 0 33 2 35 35 35 19
0 35 5 35 10 0 11 -73 14 -83 3z"/>
<path d="M800 85 c23 -24 23 -25 5 -45 -14 -16 -15 -20 -4 -20 8 0 20 5 27 12
9 9 15 9 24 0 7 -7 19 -12 27 -12 11 0 10 4 -4 20 -18 20 -18 21 5 45 22 24
22 25 4 25 -11 0 -25 -5 -32 -12 -9 -9 -15 -9 -24 0 -7 7 -21 12 -32 12 -18 0
-18 -1 4 -25z"/>
</g>
</svg>
